<svg width="744" height="632" viewBox="0 0 744 632" fill="none" xmlns="http://www.w3.org/2000/svg">
<path d="M1280.34 -207.785C1321.61 -242.618 1077.96 -198.589 1077.96 -198.589L9.30161 -82.5751C9.30161 -82.5751 -29.1893 114.98 56.6747 98.1486C142.539 81.3175 53.9118 276.493 150.123 266.048C246.335 255.603 213.474 495.722 308.974 393.281C404.474 290.841 414.974 365.162 440.974 413.781C466.974 462.401 453.974 643.657 567.974 631.281C681.974 618.906 668.186 448.782 667.78 365.162C667.374 281.541 812.725 314.037 844.454 290.841C876.183 267.644 838.71 155.634 859.766 116.418C880.822 77.2012 838.344 21.1135 896.742 6.95113C955.141 -7.21124 940.895 82.8595 1001.97 89.6838C1063.05 96.5081 1040.9 39.245 1146.57 40.6025C1252.24 41.9601 1239.07 -172.953 1280.34 -207.785Z" fill="#B1EFEB"/>
</svg>
