<svg width="1280" height="925" viewBox="0 0 1280 925" fill="none" xmlns="http://www.w3.org/2000/svg">
<path d="M-153.136 71.4914C-229.667 19.9302 -80.7054 -67.2453 -80.7054 -67.2453H1756.04C1756.04 -67.2453 1857.86 261.258 1708.89 248.5C1559.93 235.743 1746.48 550.957 1581.12 550.957C1415.75 550.957 1656.96 743.913 1379.54 687.568C1102.11 631.222 1092.54 706.172 1046.08 752.418C999.613 798.663 1346.54 1154 894.041 1154C441.541 1154 734.772 956.922 720.041 814.795C705.309 672.667 464.393 754.677 406.217 721.122C348.041 687.568 391.041 490.377 348.041 427.64C305.041 364.903 366.854 261.789 265.041 248.5C163.227 235.211 204.037 385.594 101.541 408.451C-0.955879 431.308 87.7946 741.862 -91.4595 763.656C-270.714 785.449 -76.6052 123.053 -153.136 71.4914Z" fill="#B1EFEB"/>
<path d="M-59.5226 -79.2781C-202.335 -79.2781 41.7352 -192.5 41.7352 -192.5L1756.04 -173.364C1756.04 -173.364 1686.34 224.009 1624.33 68.7528C1562.32 -86.5035 1297.65 194.731 1403.25 224.009C1508.86 253.287 1469.15 609.731 1289.65 510.688C1110.15 411.645 1112.65 443.731 1032.65 494.731C952.646 545.731 1048.15 856.231 917.146 856.231C786.146 856.231 854.018 489.666 786.146 462.231C718.274 434.796 628.146 617.731 515.646 577.731C403.146 537.731 533.08 277.231 453.363 183.731C373.646 90.2311 439.393 12.7266 355.146 1.73108C270.899 -9.2644 289.958 86.792 205.146 105.704C120.334 124.616 112.669 345.762 -33.5596 291.231C-179.788 236.7 83.2898 -79.2781 -59.5226 -79.2781Z" fill="#93E2DE"/>
</svg>
